<svg xmlns="http://www.w3.org/2000/svg" width="24" height="24" viewBox="0 0 24 24" fill="none" stroke="currentColor" stroke-width="2" stroke-linecap="round" stroke-linejoin="round" class="lucide lucide-palette"><circle cx="13.5" cy="6.5" r=".5"/><circle cx="17.5" cy="10.5" r=".5"/><circle cx="8.5" cy="7.5" r=".5"/><circle cx="6.5" cy="12.5" r=".5"/><path d="M12 2C6.5 2 2 6.5 2 12s4.5 10 10 10c.926 0 1.648-.746 1.648-1.648 0-.438-.12-.824-.324-1.127-.22-.303-.324-.658-.324-1.127 0-.916.732-1.648 1.648-1.648H17c3.314 0 6-2.686 6-6C23 6.477 18.03 2 12 2z"/></svg>
